<?xml version="1.0" standalone="no"?>
<!DOCTYPE svg PUBLIC "-//W3C//DTD SVG 20010904//EN"
 "http://www.w3.org/TR/2001/REC-SVG-20010904/DTD/svg10.dtd">
<svg version="1.0" xmlns="http://www.w3.org/2000/svg"
 width="20" height="20" viewBox="0 0 512.000000 512.000000"
 preserveAspectRatio="xMidYMid meet">

<g transform="translate(0.000000,512.000000) scale(0.100000,-0.100000)"
fill="#808080" stroke="none">
<path d="M160 4200 c-20 -20 -20 -33 -20 -1640 0 -1607 0 -1620 20 -1640 20
-20 33 -20 2400 -20 2367 0 2380 0 2400 20 20 20 20 33 20 1640 0 1607 0 1620
-20 1640 -20 20 -33 20 -2400 20 -2367 0 -2380 0 -2400 -20z m4550 -134 c-8
-8 -494 -431 -1079 -941 -629 -548 -1069 -924 -1077 -921 -10 4 -2069 1792
-2144 1862 -12 12 318 14 2150 14 1849 0 2162 -2 2150 -14z m-3652 -748 c416
-363 758 -663 760 -667 2 -6 -925 -920 -1425 -1405 l-113 -109 0 1427 c0 985
3 1425 10 1421 6 -4 351 -304 768 -667z m3780 -1460 l-3 -714 -765 749 c-421
412 -765 753 -765 757 0 4 344 307 765 674 l765 667 3 -710 c1 -390 1 -1031 0
-1423z m-466 -454 l368 -359 -1091 -3 c-600 -1 -1579 -1 -2177 0 l-1085 3 766
750 c421 412 770 751 776 753 5 2 135 -107 289 -241 154 -135 291 -253 306
-262 15 -10 35 -15 49 -11 13 3 158 122 322 266 l298 260 406 -399 c223 -219
571 -560 773 -757z"/>
</g>
</svg>
