<?xml version="1.0" standalone="no"?>
<!DOCTYPE svg PUBLIC "-//W3C//DTD SVG 20010904//EN"
 "http://www.w3.org/TR/2001/REC-SVG-20010904/DTD/svg10.dtd">
<svg version="1.0" xmlns="http://www.w3.org/2000/svg"
 width="20" height="20" viewBox="0 0 50.000000 50.000000"
 preserveAspectRatio="xMidYMid meet">

<g transform="translate(0.000000,50.000000) scale(0.100000,-0.100000)"
fill="#808080" stroke="none">
<path d="M190 463 c-42 -22 -70 -73 -70 -130 0 -40 -2 -42 -32 -45 l-33 -3 0
-140 0 -140 195 0 195 0 0 140 0 140 -32 3 c-31 3 -33 5 -33 43 0 113 -97 180
-190 132z m110 -18 c37 -19 60 -63 60 -115 l0 -40 -110 0 -110 0 0 40 c0 99
80 156 160 115z m130 -300 l0 -125 -180 0 -180 0 0 125 0 125 180 0 180 0 0
-125z"/>
<path d="M114 149 c-10 -17 13 -36 27 -22 12 12 4 33 -11 33 -5 0 -12 -5 -16
-11z"/>
<path d="M194 149 c-10 -17 13 -36 27 -22 12 12 4 33 -11 33 -5 0 -12 -5 -16
-11z"/>
<path d="M274 149 c-10 -17 13 -36 27 -22 12 12 4 33 -11 33 -5 0 -12 -5 -16
-11z"/>
<path d="M354 149 c-10 -17 13 -36 27 -22 12 12 4 33 -11 33 -5 0 -12 -5 -16
-11z"/>
</g>
</svg>
